<?xml version="1.0" encoding="UTF-8" standalone="no"?>
<!-- Created with Inkscape (http://www.inkscape.org/) -->

<svg
   width="225.64552mm"
   height="161.61491mm"
   viewBox="0 0 225.64552 161.61491"
   version="1.1"
   id="svg1"
   inkscape:version="1.4.2 (ebf0e940d0, 2025-05-08)"
   sodipodi:docname="chessLattice.svg"
   xmlns:inkscape="http://www.inkscape.org/namespaces/inkscape"
   xmlns:sodipodi="http://sodipodi.sourceforge.net/DTD/sodipodi-0.dtd"
   xmlns="http://www.w3.org/2000/svg"
   xmlns:svg="http://www.w3.org/2000/svg">
  <sodipodi:namedview
     id="namedview1"
     pagecolor="#ffffff"
     bordercolor="#000000"
     borderopacity="0.25"
     inkscape:showpageshadow="2"
     inkscape:pageopacity="0.0"
     inkscape:pagecheckerboard="0"
     inkscape:deskcolor="#d1d1d1"
     inkscape:document-units="mm"
     inkscape:zoom="0.7180275"
     inkscape:cx="271.57734"
     inkscape:cy="112.80905"
     inkscape:window-width="1920"
     inkscape:window-height="1008"
     inkscape:window-x="0"
     inkscape:window-y="0"
     inkscape:window-maximized="1"
     inkscape:current-layer="layer1" />
  <defs
     id="defs1" />
  <g
     inkscape:label="Слой 1"
     inkscape:groupmode="layer"
     id="layer1"
     transform="translate(-33.072917,-118.53333)">
    <g
       id="g1"
       transform="matrix(0.26458333,0,0,0.26458333,33.072263,116.32251)">
      <path
         style="fill:#747474;fill-opacity:0.699626"
         d="m 564.10314,461.42452 -4.1781,135.78867 135.7887,-1e-5 -0.6964,-134.39596"
         id="path112-2-1" />
      <path
         style="fill:#747474;fill-opacity:0.699626"
         d="m 291.80479,462.81723 -4.1781,135.78867 135.7887,-10e-6 -0.6964,-134.39596"
         id="path112-2-06" />
      <path
         style="fill:#747474;fill-opacity:0.699626"
         d="m 19.364796,460.92238 -4.1781,135.78867 135.788704,-10e-6 -0.6964,-134.39596"
         id="path112-2-5" />
      <path
         style="fill:#747474;fill-opacity:0.699626"
         d="m 699.92299,324.92666 -4.17812,135.78867 135.78873,-10e-6 -0.6964,-134.39596"
         id="path112-2-9" />
      <path
         style="fill:#747474;fill-opacity:0.699626"
         d="m 424.78767,324.86227 -4.1781,135.78867 135.7887,-10e-6 -0.6964,-134.39596"
         id="path112-2-61" />
      <path
         style="fill:#747474;fill-opacity:0.699626"
         d="m 156.3112,325.93522 -4.1781,135.78867 135.7887,-10e-6 -0.6964,-134.39596"
         id="path112-2-2" />
      <path
         style="fill:#747474;fill-opacity:0.699626;stroke-width:1.00512"
         d="m 561.89086,186.6434 -4.22097,135.78867 137.18138,-1e-5 -0.70349,-134.39596"
         id="path112-2-3" />
      <path
         style="fill:#747474;fill-opacity:0.699626"
         d="m 291.77483,188.87836 -4.17812,135.78867 135.78868,-1e-5 -0.69635,-134.39596"
         id="path112-2-7" />
      <path
         style="fill:#747474;fill-opacity:0.699626"
         d="m 20.846983,188.85372 -4.17812,135.78867 135.788677,-10e-6 -0.69635,-134.39596"
         id="path112-2-6" />
      <path
         style="fill:#747474;fill-opacity:0.699626"
         d="m 698.24927,47.322637 -4.17812,135.788673 135.78868,-1e-5 -0.69635,-134.395964"
         id="path112-2-0" />
      <path
         style="fill:#747474;fill-opacity:0.699626"
         d="m 424.64299,47.929937 -4.17812,135.788673 135.78868,-1e-5 -0.69635,-134.395961"
         id="path112-2" />
      <path
         style="fill:#747474;fill-opacity:0.699626"
         d="M 156.6817,50.833334 152.50358,186.62201 288.29226,186.622 287.59591,52.226036"
         id="path112" />
      <path
         id="path1"
         d="m 277.852,1168.98 c 0,-71.01 -57.543,-128.59 -128.551,-128.59 -71.0197,0 -128.6018,57.58 -128.6018,128.59 0,71.02 57.5821,128.56 128.6018,128.56 71.008,0 128.551,-57.54 128.551,-128.56 z"
         style="fill:#ffffff;fill-opacity:1;fill-rule:nonzero;stroke:#00001f;stroke-width:28.3465;stroke-linecap:butt;stroke-linejoin:miter;stroke-miterlimit:4;stroke-dasharray:none;stroke-opacity:1"
         transform="matrix(0.13333333,0,0,-0.13333333,0,620)" />
      <path
         id="path2"
         d="m 2300.62,1186.76 c 0,-71.02 -57.57,-128.56 -128.59,-128.56 -70.98,0 -128.55,57.54 -128.55,128.56 0,71.01 57.57,128.59 128.55,128.59 71.02,0 128.59,-57.58 128.59,-128.59 z"
         style="fill:#ffffff;fill-opacity:1;fill-rule:nonzero;stroke:#00001f;stroke-width:28.3465;stroke-linecap:butt;stroke-linejoin:miter;stroke-miterlimit:4;stroke-dasharray:none;stroke-opacity:1"
         transform="matrix(0.13333333,0,0,-0.13333333,0,620)" />
      <path
         id="path3"
         d="m 1020.35,1305.12 289.26,-267.85"
         style="fill:none;stroke:#000000;stroke-width:28.3465;stroke-linecap:butt;stroke-linejoin:miter;stroke-miterlimit:4;stroke-dasharray:none;stroke-opacity:1"
         transform="matrix(0.13333333,0,0,-0.13333333,0,620)" />
      <path
         id="path4"
         d="M 1308.55,1316.91 1019.26,1049.06"
         style="fill:none;stroke:#000000;stroke-width:28.3465;stroke-linecap:butt;stroke-linejoin:miter;stroke-miterlimit:4;stroke-dasharray:none;stroke-opacity:1"
         transform="matrix(0.13333333,0,0,-0.13333333,0,620)" />
      <path
         id="path5"
         d="m 1276.64,163.949 c 0,-71.0193 -57.58,-128.5974 -128.55,-128.5974 -71.02,0 -128.6,57.5781 -128.6,128.5974 0,71.012 57.58,128.551 128.6,128.551 70.97,0 128.55,-57.539 128.55,-128.551 z"
         style="fill:#ffffff;fill-opacity:1;fill-rule:nonzero;stroke:#00001f;stroke-width:28.3465;stroke-linecap:butt;stroke-linejoin:miter;stroke-miterlimit:4;stroke-dasharray:none;stroke-opacity:1"
         transform="matrix(0.13333333,0,0,-0.13333333,0,620)" />
      <path
         id="path6"
         d="m 1299.22,2198.12 c 0,-71.01 -57.58,-128.59 -128.6,-128.59 -70.97,0 -128.55,57.58 -128.55,128.59 0,70.98 57.58,128.56 128.55,128.56 71.02,0 128.6,-57.58 128.6,-128.56 z"
         style="fill:#ffffff;fill-opacity:1;fill-rule:nonzero;stroke:#00001f;stroke-width:28.3465;stroke-linecap:butt;stroke-linejoin:miter;stroke-miterlimit:4;stroke-dasharray:none;stroke-opacity:1"
         transform="matrix(0.13333333,0,0,-0.13333333,0,620)" />
      <path
         id="path7"
         d="M 12.2695,2325.86 301.52,2057.97"
         style="fill:none;stroke:#000000;stroke-width:28.3465;stroke-linecap:butt;stroke-linejoin:miter;stroke-miterlimit:4;stroke-dasharray:none;stroke-opacity:1"
         transform="matrix(0.13333333,0,0,-0.13333333,0,620)" />
      <path
         id="path8"
         d="M 300.469,2337.62 11.1719,2069.77"
         style="fill:none;stroke:#000000;stroke-width:28.3465;stroke-linecap:butt;stroke-linejoin:miter;stroke-miterlimit:4;stroke-dasharray:none;stroke-opacity:1"
         transform="matrix(0.13333333,0,0,-0.13333333,0,620)" />
      <path
         id="path9"
         d="M 2025.51,2318.28 2314.8,2050.39"
         style="fill:none;stroke:#000000;stroke-width:28.3465;stroke-linecap:butt;stroke-linejoin:miter;stroke-miterlimit:4;stroke-dasharray:none;stroke-opacity:1"
         transform="matrix(0.13333333,0,0,-0.13333333,0,620)" />
      <path
         id="path10"
         d="m 2313.75,2330.04 -289.3,-267.85"
         style="fill:none;stroke:#000000;stroke-width:28.3465;stroke-linecap:butt;stroke-linejoin:miter;stroke-miterlimit:4;stroke-dasharray:none;stroke-opacity:1"
         transform="matrix(0.13333333,0,0,-0.13333333,0,620)" />
      <path
         id="path11"
         d="M 2025.66,299.531 2314.96,31.6797"
         style="fill:none;stroke:#000000;stroke-width:28.3465;stroke-linecap:butt;stroke-linejoin:miter;stroke-miterlimit:4;stroke-dasharray:none;stroke-opacity:1"
         transform="matrix(0.13333333,0,0,-0.13333333,0,620)" />
      <path
         id="path12"
         d="M 2313.91,311.332 2024.61,43.4805"
         style="fill:none;stroke:#000000;stroke-width:28.3465;stroke-linecap:butt;stroke-linejoin:miter;stroke-miterlimit:4;stroke-dasharray:none;stroke-opacity:1"
         transform="matrix(0.13333333,0,0,-0.13333333,0,620)" />
      <path
         id="path13"
         d="M 12.2695,284.41 301.52,16.5195"
         style="fill:none;stroke:#000000;stroke-width:28.3465;stroke-linecap:butt;stroke-linejoin:miter;stroke-miterlimit:4;stroke-dasharray:none;stroke-opacity:1"
         transform="matrix(0.13333333,0,0,-0.13333333,0,620)" />
      <path
         id="path14"
         d="M 300.469,296.172 11.1719,28.3203"
         style="fill:none;stroke:#000000;stroke-width:28.3465;stroke-linecap:butt;stroke-linejoin:miter;stroke-miterlimit:4;stroke-dasharray:none;stroke-opacity:1"
         transform="matrix(0.13333333,0,0,-0.13333333,0,620)" />
      <path
         id="path15"
         d="m 3311.72,2212.81 c 0,-71.01 -57.54,-128.59 -128.56,-128.59 -71.01,0 -128.59,57.58 -128.59,128.59 0,71.02 57.58,128.56 128.59,128.56 71.02,0 128.56,-57.54 128.56,-128.56 z"
         style="fill:#ffffff;fill-opacity:1;fill-rule:nonzero;stroke:#00001f;stroke-width:28.3465;stroke-linecap:butt;stroke-linejoin:miter;stroke-miterlimit:4;stroke-dasharray:none;stroke-opacity:1"
         transform="matrix(0.13333333,0,0,-0.13333333,0,620)" />
      <path
         id="path16"
         d="m 3311.56,171.52 c 0,-71.008 -57.54,-128.5903 -128.55,-128.5903 -71.02,0 -128.6,57.5823 -128.6,128.5903 0,71.019 57.58,128.562 128.6,128.562 71.01,0 128.55,-57.543 128.55,-128.562 z"
         style="fill:#ffffff;fill-opacity:1;fill-rule:nonzero;stroke:#00001f;stroke-width:28.3465;stroke-linecap:butt;stroke-linejoin:miter;stroke-miterlimit:4;stroke-dasharray:none;stroke-opacity:1"
         transform="matrix(0.13333333,0,0,-0.13333333,0,620)" />
      <path
         id="path17"
         d="m 4331.6,1191.99 c 0,-70.97 -57.54,-128.55 -128.55,-128.55 -71.02,0 -128.6,57.58 -128.6,128.55 0,71.02 57.58,128.6 128.6,128.6 71.01,0 128.55,-57.58 128.55,-128.6 z"
         style="fill:#ffffff;fill-opacity:1;fill-rule:nonzero;stroke:#00001f;stroke-width:28.3465;stroke-linecap:butt;stroke-linejoin:miter;stroke-miterlimit:4;stroke-dasharray:none;stroke-opacity:1"
         transform="matrix(0.13333333,0,0,-0.13333333,0,620)" />
      <path
         id="path18"
         d="m 3039.06,1327.77 289.26,-267.85"
         style="fill:none;stroke:#000000;stroke-width:28.3465;stroke-linecap:butt;stroke-linejoin:miter;stroke-miterlimit:4;stroke-dasharray:none;stroke-opacity:1"
         transform="matrix(0.13333333,0,0,-0.13333333,0,620)" />
      <path
         id="path19"
         d="m 3327.27,1339.57 -289.3,-267.85"
         style="fill:none;stroke:#000000;stroke-width:28.3465;stroke-linecap:butt;stroke-linejoin:miter;stroke-miterlimit:4;stroke-dasharray:none;stroke-opacity:1"
         transform="matrix(0.13333333,0,0,-0.13333333,0,620)" />
      <path
         id="path20"
         d="m 4051.21,2340.86 289.3,-267.89"
         style="fill:none;stroke:#000000;stroke-width:28.3465;stroke-linecap:butt;stroke-linejoin:miter;stroke-miterlimit:4;stroke-dasharray:none;stroke-opacity:1"
         transform="matrix(0.13333333,0,0,-0.13333333,0,620)" />
      <path
         id="path21"
         d="M 4339.41,2352.62 4050.16,2084.77"
         style="fill:none;stroke:#000000;stroke-width:28.3465;stroke-linecap:butt;stroke-linejoin:miter;stroke-miterlimit:4;stroke-dasharray:none;stroke-opacity:1"
         transform="matrix(0.13333333,0,0,-0.13333333,0,620)" />
      <path
         id="path22"
         d="M 4058.95,314.531 4348.24,46.6797"
         style="fill:none;stroke:#000000;stroke-width:28.3465;stroke-linecap:butt;stroke-linejoin:miter;stroke-miterlimit:4;stroke-dasharray:none;stroke-opacity:1"
         transform="matrix(0.13333333,0,0,-0.13333333,0,620)" />
      <path
         id="path23"
         d="M 4347.15,326.332 4057.85,58.4805"
         style="fill:none;stroke:#000000;stroke-width:28.3465;stroke-linecap:butt;stroke-linejoin:miter;stroke-miterlimit:4;stroke-dasharray:none;stroke-opacity:1"
         transform="matrix(0.13333333,0,0,-0.13333333,0,620)" />
      <path
         id="path24"
         d="m 149.301,1018.98 v -825"
         style="fill:none;stroke:#fc0000;stroke-width:28.3465;stroke-linecap:butt;stroke-linejoin:miter;stroke-miterlimit:4;stroke-dasharray:none;stroke-opacity:1"
         transform="matrix(0.13333333,0,0,-0.13333333,0,620)" />
      <path
         id="path25"
         d="m 1158.59,2048.63 v -825"
         style="fill:none;stroke:#fa0000;stroke-width:28.3465;stroke-linecap:butt;stroke-linejoin:miter;stroke-miterlimit:4;stroke-dasharray:none;stroke-opacity:1"
         transform="matrix(0.13333333,0,0,-0.13333333,0,620)" />
      <path
         id="path26"
         d="M 2165.7,1045.78 V 220.781"
         style="fill:none;stroke:#f80000;stroke-width:28.3465;stroke-linecap:butt;stroke-linejoin:miter;stroke-miterlimit:4;stroke-dasharray:none;stroke-opacity:1"
         transform="matrix(0.13333333,0,0,-0.13333333,0,620)" />
      <path
         id="path27"
         d="M 4201.45,1045.78 V 220.781"
         style="fill:none;stroke:#fa0000;stroke-width:28.3465;stroke-linecap:butt;stroke-linejoin:miter;stroke-miterlimit:4;stroke-dasharray:none;stroke-opacity:1"
         transform="matrix(0.13333333,0,0,-0.13333333,0,620)" />
      <path
         id="path28"
         d="m 3175,2063.63 v -825"
         style="fill:none;stroke:#f00000;stroke-width:28.3465;stroke-linecap:butt;stroke-linejoin:miter;stroke-miterlimit:4;stroke-dasharray:none;stroke-opacity:1"
         transform="matrix(0.13333333,0,0,-0.13333333,0,620)" />
      <path
         id="path29"
         d="m 149.301,2100.04 v -825"
         style="fill:none;stroke:#fc0000;stroke-width:28.3465;stroke-linecap:butt;stroke-linejoin:miter;stroke-miterlimit:4;stroke-dasharray:28.3465, 113.386;stroke-dashoffset:0;stroke-opacity:1"
         transform="matrix(0.13333333,0,0,-0.13333333,0,620)" />
      <path
         id="path30"
         d="M 1147.85,1095.04 V 270.039"
         style="fill:none;stroke:#f00000;stroke-width:28.3465;stroke-linecap:butt;stroke-linejoin:miter;stroke-miterlimit:4;stroke-dasharray:28.3465, 113.386;stroke-dashoffset:0;stroke-opacity:1"
         transform="matrix(0.13333333,0,0,-0.13333333,0,620)" />
      <path
         id="path31"
         d="m 2159.3,2112.89 v -825"
         style="fill:none;stroke:#ff0000;stroke-width:28.3465;stroke-linecap:butt;stroke-linejoin:miter;stroke-miterlimit:4;stroke-dasharray:28.3465, 113.386;stroke-dashoffset:0;stroke-opacity:1"
         transform="matrix(0.13333333,0,0,-0.13333333,0,620)" />
      <path
         id="path32"
         d="M 3183.55,1127.19 V 302.191"
         style="fill:none;stroke:#ff0000;stroke-width:28.3465;stroke-linecap:butt;stroke-linejoin:miter;stroke-miterlimit:4;stroke-dasharray:28.3465, 113.386;stroke-dashoffset:0;stroke-opacity:1"
         transform="matrix(0.13333333,0,0,-0.13333333,0,620)" />
      <path
         id="path33"
         d="m 1022.5,2197.54 h -825"
         style="fill:none;stroke:#0000ff;stroke-width:28.3465;stroke-linecap:butt;stroke-linejoin:miter;stroke-miterlimit:4;stroke-dasharray:none;stroke-opacity:1"
         transform="matrix(0.13333333,0,0,-0.13333333,0,620)" />
      <path
         id="path34"
         d="m 1001.09,161.84 h -825"
         style="fill:none;stroke:#0000f4;stroke-width:28.3465;stroke-linecap:butt;stroke-linejoin:miter;stroke-miterlimit:4;stroke-dasharray:none;stroke-opacity:1"
         transform="matrix(0.13333333,0,0,-0.13333333,0,620)" />
      <path
         id="path35"
         d="m 2029.65,1179.69 h -825"
         style="fill:none;stroke:#0000ff;stroke-width:28.3465;stroke-linecap:butt;stroke-linejoin:miter;stroke-miterlimit:4;stroke-dasharray:none;stroke-opacity:1"
         transform="matrix(0.13333333,0,0,-0.13333333,0,620)" />
      <path
         id="path36"
         d="m 3015.35,2197.54 h -825"
         style="fill:none;stroke:#0000ff;stroke-width:28.3465;stroke-linecap:butt;stroke-linejoin:miter;stroke-miterlimit:4;stroke-dasharray:none;stroke-opacity:1"
         transform="matrix(0.13333333,0,0,-0.13333333,0,620)" />
      <path
         id="path37"
         d="m 3036.8,172.539 h -825"
         style="fill:none;stroke:#0000ff;stroke-width:28.3465;stroke-linecap:butt;stroke-linejoin:miter;stroke-miterlimit:4;stroke-dasharray:none;stroke-opacity:1"
         transform="matrix(0.13333333,0,0,-0.13333333,0,620)" />
      <path
         id="path38"
         d="m 4043.95,1201.13 h -825"
         style="fill:none;stroke:#0000b6;stroke-width:28.3465;stroke-linecap:butt;stroke-linejoin:miter;stroke-miterlimit:4;stroke-dasharray:none;stroke-opacity:1"
         transform="matrix(0.13333333,0,0,-0.13333333,0,620)" />
      <path
         id="path39"
         d="M 1078.2,1179.69 H 253.199"
         style="fill:none;stroke:#0000ff;stroke-width:28.3465;stroke-linecap:butt;stroke-linejoin:miter;stroke-miterlimit:4;stroke-dasharray:28.3465, 113.386;stroke-dashoffset:0;stroke-opacity:1"
         transform="matrix(0.13333333,0,0,-0.13333333,0,620)" />
      <path
         id="path40"
         d="m 2083.2,2197.54 h -825"
         style="fill:none;stroke:#0000ff;stroke-width:28.3465;stroke-linecap:butt;stroke-linejoin:miter;stroke-miterlimit:4;stroke-dasharray:28.3465, 113.386;stroke-dashoffset:0;stroke-opacity:1"
         transform="matrix(0.13333333,0,0,-0.13333333,0,620)" />
      <path
         id="path41"
         d="m 3079.65,1190.39 h -825"
         style="fill:none;stroke:#0000ff;stroke-width:28.3465;stroke-linecap:butt;stroke-linejoin:miter;stroke-miterlimit:4;stroke-dasharray:28.3465, 113.386;stroke-dashoffset:0;stroke-opacity:1"
         transform="matrix(0.13333333,0,0,-0.13333333,0,620)" />
      <path
         id="path42"
         d="m 2083.2,161.84 h -825"
         style="fill:none;stroke:#0900ff;stroke-width:28.3465;stroke-linecap:butt;stroke-linejoin:miter;stroke-miterlimit:4;stroke-dasharray:28.3465, 113.386;stroke-dashoffset:0;stroke-opacity:1"
         transform="matrix(0.13333333,0,0,-0.13333333,0,620)" />
      <path
         id="path43"
         d="m 4108.2,183.281 h -825"
         style="fill:none;stroke:#0c00ff;stroke-width:28.3465;stroke-linecap:butt;stroke-linejoin:miter;stroke-miterlimit:4;stroke-dasharray:28.3465, 113.386;stroke-dashoffset:0;stroke-opacity:1"
         transform="matrix(0.13333333,0,0,-0.13333333,0,620)" />
      <path
         id="path44"
         d="m 4118.95,2208.28 h -825"
         style="fill:none;stroke:#0000ff;stroke-width:28.3465;stroke-linecap:butt;stroke-linejoin:miter;stroke-miterlimit:4;stroke-dasharray:28.3465, 113.386;stroke-dashoffset:0;stroke-opacity:1"
         transform="matrix(0.13333333,0,0,-0.13333333,0,620)" />
      <path
         id="path45"
         d="m 276.328,3231.95 c 0,-71.01 -57.578,-128.59 -128.598,-128.59 -71.0112,0 -128.5503,57.58 -128.5503,128.59 0,71.02 57.5391,128.56 128.5503,128.56 71.02,0 128.598,-57.54 128.598,-128.56 z"
         style="fill:#ffffff;fill-opacity:1;fill-rule:nonzero;stroke:#00001f;stroke-width:28.3465;stroke-linecap:butt;stroke-linejoin:miter;stroke-miterlimit:4;stroke-dasharray:none;stroke-opacity:1"
         transform="matrix(0.13333333,0,0,-0.13333333,0,620)" />
      <path
         id="path46"
         d="m 2299.06,3249.73 c 0,-71.02 -57.54,-128.56 -128.55,-128.56 -71.02,0 -128.6,57.54 -128.6,128.56 0,71.01 57.58,128.59 128.6,128.59 71.01,0 128.55,-57.58 128.55,-128.59 z"
         style="fill:#ffffff;fill-opacity:1;fill-rule:nonzero;stroke:#00001f;stroke-width:28.3465;stroke-linecap:butt;stroke-linejoin:miter;stroke-miterlimit:4;stroke-dasharray:none;stroke-opacity:1"
         transform="matrix(0.13333333,0,0,-0.13333333,0,620)" />
      <path
         id="path47"
         d="m 1018.79,3368.09 289.3,-267.86"
         style="fill:none;stroke:#000000;stroke-width:28.3465;stroke-linecap:butt;stroke-linejoin:miter;stroke-miterlimit:4;stroke-dasharray:none;stroke-opacity:1"
         transform="matrix(0.13333333,0,0,-0.13333333,0,620)" />
      <path
         id="path48"
         d="M 1306.99,3379.88 1017.73,3112.03"
         style="fill:none;stroke:#000000;stroke-width:28.3465;stroke-linecap:butt;stroke-linejoin:miter;stroke-miterlimit:4;stroke-dasharray:none;stroke-opacity:1"
         transform="matrix(0.13333333,0,0,-0.13333333,0,620)" />
      <path
         id="path49"
         d="m 1297.66,4261.09 c 0,-71.01 -57.54,-128.59 -128.56,-128.59 -71.01,0 -128.59,57.58 -128.59,128.59 0,70.98 57.58,128.56 128.59,128.56 71.02,0 128.56,-57.58 128.56,-128.56 z"
         style="fill:#ffffff;fill-opacity:1;fill-rule:nonzero;stroke:#00001f;stroke-width:28.3465;stroke-linecap:butt;stroke-linejoin:miter;stroke-miterlimit:4;stroke-dasharray:none;stroke-opacity:1"
         transform="matrix(0.13333333,0,0,-0.13333333,0,620)" />
      <path
         id="path50"
         d="M 10.6992,4388.83 300,4120.94"
         style="fill:none;stroke:#000000;stroke-width:28.3465;stroke-linecap:butt;stroke-linejoin:miter;stroke-miterlimit:4;stroke-dasharray:none;stroke-opacity:1"
         transform="matrix(0.13333333,0,0,-0.13333333,0,620)" />
      <path
         id="path51"
         d="M 298.91,4400.59 9.64844,4132.73"
         style="fill:none;stroke:#000000;stroke-width:28.3465;stroke-linecap:butt;stroke-linejoin:miter;stroke-miterlimit:4;stroke-dasharray:none;stroke-opacity:1"
         transform="matrix(0.13333333,0,0,-0.13333333,0,620)" />
      <path
         id="path52"
         d="m 2023.98,4381.25 289.26,-267.89"
         style="fill:none;stroke:#000000;stroke-width:28.3465;stroke-linecap:butt;stroke-linejoin:miter;stroke-miterlimit:4;stroke-dasharray:none;stroke-opacity:1"
         transform="matrix(0.13333333,0,0,-0.13333333,0,620)" />
      <path
         id="path53"
         d="m 2312.19,4393.01 -289.3,-267.85"
         style="fill:none;stroke:#000000;stroke-width:28.3465;stroke-linecap:butt;stroke-linejoin:miter;stroke-miterlimit:4;stroke-dasharray:none;stroke-opacity:1"
         transform="matrix(0.13333333,0,0,-0.13333333,0,620)" />
      <path
         id="path54"
         d="m 3310.2,4275.78 c 0,-71.01 -57.58,-128.59 -128.6,-128.59 -71.01,0 -128.55,57.58 -128.55,128.59 0,71.02 57.54,128.56 128.55,128.56 71.02,0 128.6,-57.54 128.6,-128.56 z"
         style="fill:#ffffff;fill-opacity:1;fill-rule:nonzero;stroke:#00001f;stroke-width:28.3465;stroke-linecap:butt;stroke-linejoin:miter;stroke-miterlimit:4;stroke-dasharray:none;stroke-opacity:1"
         transform="matrix(0.13333333,0,0,-0.13333333,0,620)" />
      <path
         id="path55"
         d="m 4315.08,3254.96 c 0,-70.98 -57.58,-128.55 -128.6,-128.55 -71.01,0 -128.55,57.57 -128.55,128.55 0,71.02 57.54,128.59 128.55,128.59 71.02,0 128.6,-57.57 128.6,-128.59 z"
         style="fill:#ffffff;fill-opacity:1;fill-rule:nonzero;stroke:#00001f;stroke-width:28.3465;stroke-linecap:butt;stroke-linejoin:miter;stroke-miterlimit:4;stroke-dasharray:none;stroke-opacity:1"
         transform="matrix(0.13333333,0,0,-0.13333333,0,620)" />
      <path
         id="path56"
         d="m 3037.5,3390.74 289.3,-267.85"
         style="fill:none;stroke:#000000;stroke-width:28.3465;stroke-linecap:butt;stroke-linejoin:miter;stroke-miterlimit:4;stroke-dasharray:none;stroke-opacity:1"
         transform="matrix(0.13333333,0,0,-0.13333333,0,620)" />
      <path
         id="path57"
         d="M 3325.7,3402.54 3036.45,3134.65"
         style="fill:none;stroke:#000000;stroke-width:28.3465;stroke-linecap:butt;stroke-linejoin:miter;stroke-miterlimit:4;stroke-dasharray:none;stroke-opacity:1"
         transform="matrix(0.13333333,0,0,-0.13333333,0,620)" />
      <path
         id="path58"
         d="m 4049.65,4403.83 289.3,-267.89"
         style="fill:none;stroke:#000000;stroke-width:28.3465;stroke-linecap:butt;stroke-linejoin:miter;stroke-miterlimit:4;stroke-dasharray:none;stroke-opacity:1"
         transform="matrix(0.13333333,0,0,-0.13333333,0,620)" />
      <path
         id="path59"
         d="m 4337.89,4415.59 -289.3,-267.86"
         style="fill:none;stroke:#000000;stroke-width:28.3465;stroke-linecap:butt;stroke-linejoin:miter;stroke-miterlimit:4;stroke-dasharray:none;stroke-opacity:1"
         transform="matrix(0.13333333,0,0,-0.13333333,0,620)" />
      <path
         id="path60"
         d="m 147.73,3081.95 v -825"
         style="fill:none;stroke:#fc0000;stroke-width:28.3465;stroke-linecap:butt;stroke-linejoin:miter;stroke-miterlimit:4;stroke-dasharray:none;stroke-opacity:1"
         transform="matrix(0.13333333,0,0,-0.13333333,0,620)" />
      <path
         id="path61"
         d="m 1157.03,4111.6 v -825"
         style="fill:none;stroke:#fa0000;stroke-width:28.3465;stroke-linecap:butt;stroke-linejoin:miter;stroke-miterlimit:4;stroke-dasharray:none;stroke-opacity:1"
         transform="matrix(0.13333333,0,0,-0.13333333,0,620)" />
      <path
         id="path62"
         d="m 2164.18,3108.75 v -825"
         style="fill:none;stroke:#f80000;stroke-width:28.3465;stroke-linecap:butt;stroke-linejoin:miter;stroke-miterlimit:4;stroke-dasharray:none;stroke-opacity:1"
         transform="matrix(0.13333333,0,0,-0.13333333,0,620)" />
      <path
         id="path63"
         d="m 4184.88,3123.71 v -825"
         style="fill:none;stroke:#fa0000;stroke-width:28.3465;stroke-linecap:butt;stroke-linejoin:miter;stroke-miterlimit:4;stroke-dasharray:none;stroke-opacity:1"
         transform="matrix(0.13333333,0,0,-0.13333333,0,620)" />
      <path
         id="path64"
         d="m 3173.44,4126.6 v -825"
         style="fill:none;stroke:#f00000;stroke-width:28.3465;stroke-linecap:butt;stroke-linejoin:miter;stroke-miterlimit:4;stroke-dasharray:none;stroke-opacity:1"
         transform="matrix(0.13333333,0,0,-0.13333333,0,620)" />
      <path
         id="path65"
         d="m 147.73,4163.01 v -825"
         style="fill:none;stroke:#ff0000;stroke-width:28.3465;stroke-linecap:butt;stroke-linejoin:miter;stroke-miterlimit:4;stroke-dasharray:28.3465, 113.386;stroke-dashoffset:0;stroke-opacity:1"
         transform="matrix(0.13333333,0,0,-0.13333333,0,620)" />
      <path
         id="path66"
         d="m 1146.33,3158.01 v -825"
         style="fill:none;stroke:#ff0000;stroke-width:28.3465;stroke-linecap:butt;stroke-linejoin:miter;stroke-miterlimit:4;stroke-dasharray:28.3465, 113.386;stroke-dashoffset:0;stroke-opacity:1"
         transform="matrix(0.13333333,0,0,-0.13333333,0,620)" />
      <path
         id="path67"
         d="m 2157.73,4175.86 v -825"
         style="fill:none;stroke:#ff0000;stroke-width:28.3465;stroke-linecap:butt;stroke-linejoin:miter;stroke-miterlimit:4;stroke-dasharray:28.3465, 113.386;stroke-dashoffset:0;stroke-opacity:1"
         transform="matrix(0.13333333,0,0,-0.13333333,0,620)" />
      <path
         id="path68"
         d="m 3182.03,3190.16 v -825"
         style="fill:none;stroke:#ef0000;stroke-width:28.3465;stroke-linecap:butt;stroke-linejoin:miter;stroke-miterlimit:4;stroke-dasharray:28.3465, 113.386;stroke-dashoffset:0;stroke-opacity:1"
         transform="matrix(0.13333333,0,0,-0.13333333,0,620)" />
      <path
         id="path69"
         d="m 4184.88,4197.3 v -825"
         style="fill:none;stroke:#ff0000;stroke-width:28.3465;stroke-linecap:butt;stroke-linejoin:miter;stroke-miterlimit:4;stroke-dasharray:28.3465, 113.386;stroke-dashoffset:0;stroke-opacity:1"
         transform="matrix(0.13333333,0,0,-0.13333333,0,620)" />
      <path
         id="path70"
         d="m 1020.98,4260.51 h -825"
         style="fill:none;stroke:#0000ff;stroke-width:28.3465;stroke-linecap:butt;stroke-linejoin:miter;stroke-miterlimit:4;stroke-dasharray:none;stroke-opacity:1"
         transform="matrix(0.13333333,0,0,-0.13333333,0,620)" />
      <path
         id="path71"
         d="m 2028.09,3242.66 h -825"
         style="fill:none;stroke:#0000ff;stroke-width:28.3465;stroke-linecap:butt;stroke-linejoin:miter;stroke-miterlimit:4;stroke-dasharray:none;stroke-opacity:1"
         transform="matrix(0.13333333,0,0,-0.13333333,0,620)" />
      <path
         id="path72"
         d="m 3013.83,4260.51 h -825"
         style="fill:none;stroke:#0000ff;stroke-width:28.3465;stroke-linecap:butt;stroke-linejoin:miter;stroke-miterlimit:4;stroke-dasharray:none;stroke-opacity:1"
         transform="matrix(0.13333333,0,0,-0.13333333,0,620)" />
      <path
         id="path73"
         d="m 4042.38,3264.1 h -825"
         style="fill:none;stroke:#0000b6;stroke-width:28.3465;stroke-linecap:butt;stroke-linejoin:miter;stroke-miterlimit:4;stroke-dasharray:none;stroke-opacity:1"
         transform="matrix(0.13333333,0,0,-0.13333333,0,620)" />
      <path
         id="path74"
         d="m 1076.68,3242.66 h -825"
         style="fill:none;stroke:#0500ff;stroke-width:28.3465;stroke-linecap:butt;stroke-linejoin:miter;stroke-miterlimit:4;stroke-dasharray:28.3465, 113.386;stroke-dashoffset:0;stroke-opacity:1"
         transform="matrix(0.13333333,0,0,-0.13333333,0,620)" />
      <path
         id="path75"
         d="m 2081.68,4260.51 h -825"
         style="fill:none;stroke:#0000ff;stroke-width:28.3465;stroke-linecap:butt;stroke-linejoin:miter;stroke-miterlimit:4;stroke-dasharray:28.3465, 113.386;stroke-dashoffset:0;stroke-opacity:1"
         transform="matrix(0.13333333,0,0,-0.13333333,0,620)" />
      <path
         id="path76"
         d="m 3078.09,3253.36 h -825"
         style="fill:none;stroke:#0000ff;stroke-width:28.3465;stroke-linecap:butt;stroke-linejoin:miter;stroke-miterlimit:4;stroke-dasharray:28.3465, 113.386;stroke-dashoffset:0;stroke-opacity:1"
         transform="matrix(0.13333333,0,0,-0.13333333,0,620)" />
      <path
         id="path77"
         d="m 4117.38,4271.21 h -825"
         style="fill:none;stroke:#0000ff;stroke-width:28.3465;stroke-linecap:butt;stroke-linejoin:miter;stroke-miterlimit:4;stroke-dasharray:28.3465, 113.386;stroke-dashoffset:0;stroke-opacity:1"
         transform="matrix(0.13333333,0,0,-0.13333333,0,620)" />
      <path
         id="path78"
         d="m 5357.89,2229.57 c 0,-71.02 -57.58,-128.55 -128.59,-128.55 -70.98,0 -128.56,57.53 -128.56,128.55 0,71.02 57.58,128.55 128.56,128.55 71.01,0 128.59,-57.53 128.59,-128.55 z"
         style="fill:#ffffff;fill-opacity:1;fill-rule:nonzero;stroke:#00001f;stroke-width:28.3465;stroke-linecap:butt;stroke-linejoin:miter;stroke-miterlimit:4;stroke-dasharray:none;stroke-opacity:1"
         transform="matrix(0.13333333,0,0,-0.13333333,0,620)" />
      <path
         id="path79"
         d="m 5357.73,188.281 c 0,-71.011 -57.57,-128.5505 -128.55,-128.5505 -71.02,0 -128.59,57.5395 -128.59,128.5505 0,71.02 57.57,128.559 128.59,128.559 70.98,0 128.55,-57.539 128.55,-128.559 z"
         style="fill:#ffffff;fill-opacity:1;fill-rule:nonzero;stroke:#00001f;stroke-width:28.3465;stroke-linecap:butt;stroke-linejoin:miter;stroke-miterlimit:4;stroke-dasharray:none;stroke-opacity:1"
         transform="matrix(0.13333333,0,0,-0.13333333,0,620)" />
      <path
         id="path80"
         d="m 6362.77,1208.79 c 0,-71.02 -57.57,-128.59 -128.59,-128.59 -70.98,0 -128.56,57.57 -128.56,128.59 0,70.98 57.58,128.55 128.56,128.55 71.02,0 128.59,-57.57 128.59,-128.55 z"
         style="fill:#ffffff;fill-opacity:1;fill-rule:nonzero;stroke:#00001f;stroke-width:28.3465;stroke-linecap:butt;stroke-linejoin:miter;stroke-miterlimit:4;stroke-dasharray:none;stroke-opacity:1"
         transform="matrix(0.13333333,0,0,-0.13333333,0,620)" />
      <path
         id="path81"
         d="m 5085.2,1344.53 289.29,-267.85"
         style="fill:none;stroke:#000000;stroke-width:28.3465;stroke-linecap:butt;stroke-linejoin:miter;stroke-miterlimit:4;stroke-dasharray:none;stroke-opacity:1"
         transform="matrix(0.13333333,0,0,-0.13333333,0,620)" />
      <path
         id="path82"
         d="m 5373.44,1356.33 -289.3,-267.85"
         style="fill:none;stroke:#000000;stroke-width:28.3465;stroke-linecap:butt;stroke-linejoin:miter;stroke-miterlimit:4;stroke-dasharray:none;stroke-opacity:1"
         transform="matrix(0.13333333,0,0,-0.13333333,0,620)" />
      <path
         id="path83"
         d="m 6097.38,2357.62 289.26,-267.85"
         style="fill:none;stroke:#000000;stroke-width:28.3465;stroke-linecap:butt;stroke-linejoin:miter;stroke-miterlimit:4;stroke-dasharray:none;stroke-opacity:1"
         transform="matrix(0.13333333,0,0,-0.13333333,0,620)" />
      <path
         id="path84"
         d="m 6385.59,2369.38 -289.3,-267.86"
         style="fill:none;stroke:#000000;stroke-width:28.3465;stroke-linecap:butt;stroke-linejoin:miter;stroke-miterlimit:4;stroke-dasharray:none;stroke-opacity:1"
         transform="matrix(0.13333333,0,0,-0.13333333,0,620)" />
      <path
         id="path85"
         d="M 6090.12,331.332 6379.38,63.4414"
         style="fill:none;stroke:#000000;stroke-width:28.3465;stroke-linecap:butt;stroke-linejoin:miter;stroke-miterlimit:4;stroke-dasharray:none;stroke-opacity:1"
         transform="matrix(0.13333333,0,0,-0.13333333,0,620)" />
      <path
         id="path86"
         d="M 6378.32,343.09 6089.02,75.2305"
         style="fill:none;stroke:#000000;stroke-width:28.3465;stroke-linecap:butt;stroke-linejoin:miter;stroke-miterlimit:4;stroke-dasharray:none;stroke-opacity:1"
         transform="matrix(0.13333333,0,0,-0.13333333,0,620)" />
      <path
         id="path87"
         d="M 6232.58,1077.54 V 252.539"
         style="fill:none;stroke:#fa0000;stroke-width:28.3465;stroke-linecap:butt;stroke-linejoin:miter;stroke-miterlimit:4;stroke-dasharray:none;stroke-opacity:1"
         transform="matrix(0.13333333,0,0,-0.13333333,0,620)" />
      <path
         id="path88"
         d="m 5221.17,2080.39 v -825"
         style="fill:none;stroke:#f00000;stroke-width:28.3465;stroke-linecap:butt;stroke-linejoin:miter;stroke-miterlimit:4;stroke-dasharray:none;stroke-opacity:1"
         transform="matrix(0.13333333,0,0,-0.13333333,0,620)" />
      <path
         id="path89"
         d="M 5229.73,1143.95 V 318.949"
         style="fill:none;stroke:#fe0000;stroke-width:28.3465;stroke-linecap:butt;stroke-linejoin:miter;stroke-miterlimit:4;stroke-dasharray:28.3465, 113.386;stroke-dashoffset:0;stroke-opacity:1"
         transform="matrix(0.13333333,0,0,-0.13333333,0,620)" />
      <path
         id="path90"
         d="m 6232.58,2151.09 v -825"
         style="fill:none;stroke:#ff0000;stroke-width:28.3465;stroke-linecap:butt;stroke-linejoin:miter;stroke-miterlimit:4;stroke-dasharray:28.3465, 113.386;stroke-dashoffset:0;stroke-opacity:1"
         transform="matrix(0.13333333,0,0,-0.13333333,0,620)" />
      <path
         id="path91"
         d="m 5061.52,2214.3 h -825"
         style="fill:none;stroke:#0000ff;stroke-width:28.3465;stroke-linecap:butt;stroke-linejoin:miter;stroke-miterlimit:4;stroke-dasharray:none;stroke-opacity:1"
         transform="matrix(0.13333333,0,0,-0.13333333,0,620)" />
      <path
         id="path92"
         d="m 5082.97,189.301 h -825"
         style="fill:none;stroke:#0000ff;stroke-width:28.3465;stroke-linecap:butt;stroke-linejoin:miter;stroke-miterlimit:4;stroke-dasharray:none;stroke-opacity:1"
         transform="matrix(0.13333333,0,0,-0.13333333,0,620)" />
      <path
         id="path93"
         d="m 6090.08,1217.89 h -825"
         style="fill:none;stroke:#0000b6;stroke-width:28.3465;stroke-linecap:butt;stroke-linejoin:miter;stroke-miterlimit:4;stroke-dasharray:none;stroke-opacity:1"
         transform="matrix(0.13333333,0,0,-0.13333333,0,620)" />
      <path
         id="path94"
         d="m 5125.82,1207.19 h -825"
         style="fill:none;stroke:#0400ff;stroke-width:28.3465;stroke-linecap:butt;stroke-linejoin:miter;stroke-miterlimit:4;stroke-dasharray:28.3465, 113.386;stroke-dashoffset:0;stroke-opacity:1"
         transform="matrix(0.13333333,0,0,-0.13333333,0,620)" />
      <path
         id="path95"
         d="m 6154.38,200.039 h -825"
         style="fill:none;stroke:#0000ff;stroke-width:28.3465;stroke-linecap:butt;stroke-linejoin:miter;stroke-miterlimit:4;stroke-dasharray:28.3465, 113.386;stroke-dashoffset:0;stroke-opacity:1"
         transform="matrix(0.13333333,0,0,-0.13333333,0,620)" />
      <path
         id="path96"
         d="m 6165.08,2225.04 h -825"
         style="fill:none;stroke:#0000ff;stroke-width:28.3465;stroke-linecap:butt;stroke-linejoin:miter;stroke-miterlimit:4;stroke-dasharray:28.3465, 113.386;stroke-dashoffset:0;stroke-opacity:1"
         transform="matrix(0.13333333,0,0,-0.13333333,0,620)" />
      <path
         id="path97"
         d="m 5356.33,4292.54 c 0,-71.02 -57.54,-128.56 -128.56,-128.56 -71.01,0 -128.59,57.54 -128.59,128.56 0,71.01 57.58,128.55 128.59,128.55 71.02,0 128.56,-57.54 128.56,-128.55 z"
         style="fill:#ffffff;fill-opacity:1;fill-rule:nonzero;stroke:#00001f;stroke-width:28.3465;stroke-linecap:butt;stroke-linejoin:miter;stroke-miterlimit:4;stroke-dasharray:none;stroke-opacity:1"
         transform="matrix(0.13333333,0,0,-0.13333333,0,620)" />
      <path
         id="path98"
         d="m 6361.21,3271.72 c 0,-70.98 -57.54,-128.56 -128.55,-128.56 -71.02,0 -128.6,57.58 -128.6,128.56 0,71.01 57.58,128.59 128.6,128.59 71.01,0 128.55,-57.58 128.55,-128.59 z"
         style="fill:#ffffff;fill-opacity:1;fill-rule:nonzero;stroke:#00001f;stroke-width:28.3465;stroke-linecap:butt;stroke-linejoin:miter;stroke-miterlimit:4;stroke-dasharray:none;stroke-opacity:1"
         transform="matrix(0.13333333,0,0,-0.13333333,0,620)" />
      <path
         id="path99"
         d="m 5083.67,3407.5 289.3,-267.85"
         style="fill:none;stroke:#000000;stroke-width:28.3465;stroke-linecap:butt;stroke-linejoin:miter;stroke-miterlimit:4;stroke-dasharray:none;stroke-opacity:1"
         transform="matrix(0.13333333,0,0,-0.13333333,0,620)" />
      <path
         id="path100"
         d="m 5371.88,3419.3 -289.3,-267.85"
         style="fill:none;stroke:#000000;stroke-width:28.3465;stroke-linecap:butt;stroke-linejoin:miter;stroke-miterlimit:4;stroke-dasharray:none;stroke-opacity:1"
         transform="matrix(0.13333333,0,0,-0.13333333,0,620)" />
      <path
         id="path101"
         d="m 6095.82,4420.59 289.3,-267.86"
         style="fill:none;stroke:#000000;stroke-width:28.3465;stroke-linecap:butt;stroke-linejoin:miter;stroke-miterlimit:4;stroke-dasharray:none;stroke-opacity:1"
         transform="matrix(0.13333333,0,0,-0.13333333,0,620)" />
      <path
         id="path102"
         d="M 6384.02,4432.34 6094.77,4164.49"
         style="fill:none;stroke:#000000;stroke-width:28.3465;stroke-linecap:butt;stroke-linejoin:miter;stroke-miterlimit:4;stroke-dasharray:none;stroke-opacity:1"
         transform="matrix(0.13333333,0,0,-0.13333333,0,620)" />
      <path
         id="path103"
         d="m 6231.05,3140.51 v -825"
         style="fill:none;stroke:#fa0000;stroke-width:28.3465;stroke-linecap:butt;stroke-linejoin:miter;stroke-miterlimit:4;stroke-dasharray:none;stroke-opacity:1"
         transform="matrix(0.13333333,0,0,-0.13333333,0,620)" />
      <path
         id="path104"
         d="m 5219.61,4143.36 v -825"
         style="fill:none;stroke:#f00000;stroke-width:28.3465;stroke-linecap:butt;stroke-linejoin:miter;stroke-miterlimit:4;stroke-dasharray:none;stroke-opacity:1"
         transform="matrix(0.13333333,0,0,-0.13333333,0,620)" />
      <path
         id="path105"
         d="m 5228.2,3206.91 v -825"
         style="fill:none;stroke:#ff0000;stroke-width:28.3465;stroke-linecap:butt;stroke-linejoin:miter;stroke-miterlimit:4;stroke-dasharray:28.3465, 113.386;stroke-dashoffset:0;stroke-opacity:1"
         transform="matrix(0.13333333,0,0,-0.13333333,0,620)" />
      <path
         id="path106"
         d="m 6231.05,4214.06 v -825"
         style="fill:none;stroke:#ff0000;stroke-width:28.3465;stroke-linecap:butt;stroke-linejoin:miter;stroke-miterlimit:4;stroke-dasharray:28.3465, 113.386;stroke-dashoffset:0;stroke-opacity:1"
         transform="matrix(0.13333333,0,0,-0.13333333,0,620)" />
      <path
         id="path107"
         d="m 5059.96,4277.27 h -825"
         style="fill:none;stroke:#0000ff;stroke-width:28.3465;stroke-linecap:butt;stroke-linejoin:miter;stroke-miterlimit:4;stroke-dasharray:none;stroke-opacity:1"
         transform="matrix(0.13333333,0,0,-0.13333333,0,620)" />
      <path
         id="path108"
         d="m 6088.55,3280.86 h -825"
         style="fill:none;stroke:#0000b6;stroke-width:28.3465;stroke-linecap:butt;stroke-linejoin:miter;stroke-miterlimit:4;stroke-dasharray:none;stroke-opacity:1"
         transform="matrix(0.13333333,0,0,-0.13333333,0,620)" />
      <path
         id="path109"
         d="m 5124.26,3270.16 h -825"
         style="fill:none;stroke:#0f00ff;stroke-width:28.3465;stroke-linecap:butt;stroke-linejoin:miter;stroke-miterlimit:4;stroke-dasharray:28.3465, 113.386;stroke-dashoffset:0;stroke-opacity:1"
         transform="matrix(0.13333333,0,0,-0.13333333,0,620)" />
      <path
         id="path110"
         d="m 6163.55,4288.01 h -825"
         style="fill:none;stroke:#0000ff;stroke-width:28.3465;stroke-linecap:butt;stroke-linejoin:miter;stroke-miterlimit:4;stroke-dasharray:28.3465, 113.386;stroke-dashoffset:0;stroke-opacity:1"
         transform="matrix(0.13333333,0,0,-0.13333333,0,620)" />
      <path
         id="path111"
         d="m 4188.87,2110.9 v -825"
         style="fill:none;stroke:#ff0000;stroke-width:28.3465;stroke-linecap:butt;stroke-linejoin:miter;stroke-miterlimit:4;stroke-dasharray:28.3465, 113.386;stroke-dashoffset:0;stroke-opacity:1"
         transform="matrix(0.13333333,0,0,-0.13333333,0,620)" />
      <text
         id="text111"
         xml:space="preserve"
         x="70.775513"
         y="36.828224"
         style="font-size:16px;stroke-width:1.33333"><tspan
           id="tspan111"
           style="font-style:italic;font-variant:normal;font-weight:normal;font-size:40px;font-family:'Times New Roman';writing-mode:lr-tb;fill:#000000;fill-opacity:1;fill-rule:nonzero;stroke:none;stroke-width:1.33333"
           x="70.775513"
           y="36.828224">J</tspan><tspan
           id="tspan112"
           style="font-style:italic;font-variant:normal;font-weight:normal;font-size:26px;font-family:'Times New Roman';writing-mode:lr-tb;fill:#000000;fill-opacity:1;fill-rule:nonzero;stroke:none;stroke-width:1.33333"
           x="88.529663"
           y="44.828224">1</tspan><tspan
           id="tspan113"
           style="font-style:italic;font-variant:normal;font-weight:normal;font-size:40px;font-family:'Times New Roman';writing-mode:lr-tb;fill:#000000;fill-opacity:1;fill-rule:nonzero;stroke:none;stroke-width:1.33333"
           x="31.441648"
           y="277.69754">J</tspan><tspan
           id="tspan114"
           style="font-style:italic;font-variant:normal;font-weight:normal;font-size:26px;font-family:'Times New Roman';writing-mode:lr-tb;fill:#000000;fill-opacity:1;fill-rule:nonzero;stroke:none;stroke-width:1.33333"
           x="49.195797"
           y="285.69754">2</tspan><tspan
           id="tspan115"
           style="font-style:italic;font-variant:normal;font-weight:normal;font-size:40px;font-family:'Times New Roman';writing-mode:lr-tb;fill:#000000;fill-opacity:1;fill-rule:nonzero;stroke:none;stroke-width:1.33333"
           x="205.72778"
           y="34.840225">J</tspan><tspan
           id="tspan116"
           style="font-style:italic;font-variant:normal;font-weight:normal;font-size:26px;font-family:'Times New Roman';writing-mode:lr-tb;fill:#000000;fill-opacity:1;fill-rule:nonzero;stroke:none;stroke-width:1.33333"
           x="223.48138"
           y="42.840225">3</tspan><tspan
           id="tspan117"
           style="font-style:italic;font-variant:normal;font-weight:normal;font-size:40px;font-family:'Times New Roman';writing-mode:lr-tb;fill:#000000;fill-opacity:1;fill-rule:nonzero;stroke:none;stroke-width:1.33333"
           x="31.441404"
           y="137.69756">J</tspan><tspan
           id="tspan118"
           style="font-style:italic;font-variant:normal;font-weight:normal;font-size:26px;font-family:'Times New Roman';writing-mode:lr-tb;fill:#000000;fill-opacity:1;fill-rule:nonzero;stroke:none;stroke-width:1.33333"
           x="49.195553"
           y="145.69756">4</tspan></text>
    </g>
  </g>
</svg>
